<svg width="0" height="0" class="hidden">
  <symbol fill="none" xmlns="http://www.w3.org/2000/svg" viewBox="0 0 24 24" id="angle-small-left">
    <path d="M10.6008 12.71C10.5071 12.617 10.4327 12.5064 10.3819 12.3846C10.3312 12.2627 10.305 12.132 10.305 12C10.305 11.868 10.3312 11.7373 10.3819 11.6154C10.4327 11.4936 10.5071 11.383 10.6008 11.29L15.1908 6.71C15.2846 6.61704 15.359 6.50644 15.4097 6.38458C15.4605 6.26272 15.4866 6.13201 15.4866 6C15.4866 5.86799 15.4605 5.73728 15.4097 5.61542C15.359 5.49356 15.2846 5.38296 15.1908 5.29C15.0035 5.10375 14.75 4.99921 14.4858 4.99921C14.2217 4.99921 13.9682 5.10375 13.7808 5.29L9.19084 9.88001C8.62903 10.4425 8.31348 11.205 8.31348 12C8.31348 12.795 8.62903 13.5575 9.19084 14.12L13.7808 18.71C13.9671 18.8948 14.2185 18.9989 14.4808 19C14.6124 19.0008 14.7429 18.9756 14.8647 18.9258C14.9866 18.876 15.0974 18.8027 15.1908 18.71C15.2846 18.6171 15.359 18.5065 15.4097 18.3846C15.4605 18.2627 15.4866 18.132 15.4866 18C15.4866 17.868 15.4605 17.7373 15.4097 17.6154C15.359 17.4936 15.2846 17.383 15.1908 17.29L10.6008 12.71Z" fill="black" fill-opacity="0.5"></path>
  </symbol>
   <symbol fill="none" xmlns="http://www.w3.org/2000/svg" viewBox="0 0 24 24" id="fi-rr-angle-small-left-dopp">
    <path d="M10.5999 12.7101C10.5061 12.6171 10.4317 12.5065 10.381 12.3847C10.3302 12.2628 10.3041 12.1321 10.3041 12.0001C10.3041 11.8681 10.3302 11.7374 10.381 11.6155C10.4317 11.4936 10.5061 11.383 10.5999 11.2901L15.1899 6.71006C15.2836 6.6171 15.358 6.5065 15.4088 6.38464C15.4595 6.26278 15.4857 6.13207 15.4857 6.00006C15.4857 5.86805 15.4595 5.73734 15.4088 5.61548C15.358 5.49362 15.2836 5.38302 15.1899 5.29006C15.0025 5.10381 14.749 4.99927 14.4849 4.99927C14.2207 4.99927 13.9672 5.10381 13.7799 5.29006L9.18986 9.88007C8.62806 10.4426 8.3125 11.2051 8.3125 12.0001C8.3125 12.7951 8.62806 13.5576 9.18986 14.1201L13.7799 18.7101C13.9661 18.8948 14.2175 18.999 14.4799 19.0001C14.6115 19.0008 14.7419 18.9756 14.8638 18.9259C14.9856 18.8761 15.0964 18.8028 15.1899 18.7101C15.2836 18.6171 15.358 18.5065 15.4088 18.3847C15.4595 18.2628 15.4857 18.1321 15.4857 18.0001C15.4857 17.8681 15.4595 17.7374 15.4088 17.6155C15.358 17.4936 15.2836 17.383 15.1899 17.2901L10.5999 12.7101Z" fill="#262626" fill-opacity="0.5"></path>
  </symbol>
 <symbol fill="none" xmlns="http://www.w3.org/2000/svg" viewBox="0 0 24 24" id="fi-rr-angle-small-rigth-dopp">
    <path d="M13.4001 12.7101C13.4939 12.6171 13.5683 12.5065 13.619 12.3847C13.6698 12.2628 13.6959 12.1321 13.6959 12.0001C13.6959 11.8681 13.6698 11.7374 13.619 11.6155C13.5683 11.4936 13.4939 11.383 13.4001 11.2901L8.81014 6.71006C8.71641 6.6171 8.64202 6.5065 8.59125 6.38464C8.54048 6.26278 8.51434 6.13207 8.51434 6.00006C8.51434 5.86805 8.54048 5.73734 8.59125 5.61548C8.64202 5.49362 8.71641 5.38302 8.81014 5.29006C8.9975 5.10381 9.25095 4.99927 9.51514 4.99927C9.77933 4.99927 10.0328 5.10381 10.2201 5.29006L14.8101 9.88007C15.3719 10.4426 15.6875 11.2051 15.6875 12.0001C15.6875 12.7951 15.3719 13.5576 14.8101 14.1201L10.2201 18.7101C10.0339 18.8948 9.78248 18.999 9.52014 19.0001C9.38853 19.0008 9.25807 18.9756 9.13623 18.9259C9.0144 18.8761 8.90358 18.8028 8.81014 18.7101C8.71641 18.6171 8.64202 18.5065 8.59125 18.3847C8.54048 18.2628 8.51434 18.1321 8.51434 18.0001C8.51434 17.8681 8.54048 17.7374 8.59125 17.6155C8.64202 17.4936 8.71641 17.383 8.81014 17.2901L13.4001 12.7101Z" fill="#262626"></path>
  </symbol>

  <symbol fill="none" xmlns="http://www.w3.org/2000/svg" viewBox="0 0 24 24" id="angle-small-rigth">
    <path d="M13.3992 12.71C13.4929 12.6171 13.5673 12.5065 13.6181 12.3846C13.6688 12.2628 13.695 12.1321 13.695 12C13.695 11.868 13.6688 11.7373 13.6181 11.6155C13.5673 11.4936 13.4929 11.383 13.3992 11.29L8.80916 6.71003C8.71543 6.61707 8.64104 6.50647 8.59027 6.38461C8.5395 6.26275 8.51336 6.13204 8.51336 6.00003C8.51336 5.86802 8.5395 5.73731 8.59027 5.61545C8.64104 5.49359 8.71543 5.38299 8.80916 5.29003C8.99653 5.10378 9.24998 4.99924 9.51416 4.99924C9.77835 4.99924 10.0318 5.10378 10.2192 5.29003L14.8092 9.88004C15.371 10.4425 15.6865 11.205 15.6865 12C15.6865 12.795 15.371 13.5575 14.8092 14.12L10.2192 18.71C10.0329 18.8948 9.7815 18.9989 9.51916 19C9.38756 19.0008 9.25709 18.9756 9.13526 18.9258C9.01342 18.8761 8.9026 18.8027 8.80916 18.71C8.71543 18.6171 8.64104 18.5065 8.59027 18.3846C8.5395 18.2628 8.51336 18.1321 8.51336 18C8.51336 17.868 8.5395 17.7373 8.59027 17.6155C8.64104 17.4936 8.71543 17.383 8.80916 17.29L13.3992 12.71Z" fill="none"></path>
  </symbol>

   <symbol fill="none" xmlns="http://www.w3.org/2000/svg" viewBox="0 0 20 20" id="calendar">
    <path d="M15.8333 3.33333H4.16667C3.24619 3.33333 2.5 4.07952 2.5 4.99999V16.6667C2.5 17.5871 3.24619 18.3333 4.16667 18.3333H15.8333C16.7538 18.3333 17.5 17.5871 17.5 16.6667V4.99999C17.5 4.07952 16.7538 3.33333 15.8333 3.33333Z" stroke="#262626" stroke-width="1.8" stroke-linecap="round" stroke-linejoin="round"></path>
    <path d="M13.333 1.66667V5" stroke="#262626" stroke-width="1.8" stroke-linecap="round" stroke-linejoin="round"></path>
    <path d="M6.66699 1.66667V5" stroke="#262626" stroke-width="1.8" stroke-linecap="round" stroke-linejoin="round"></path>
    <path d="M2.5 8.33333H17.5" stroke="#262626" stroke-width="1.8" stroke-linecap="round" stroke-linejoin="round"></path>
  </symbol>

   <symbol fill="none" xmlns="http://www.w3.org/2000/svg" viewBox="0 0 22 22" id="check">
    <path d="M18.3337 6.41667L8.25042 16.5L3.66699 11.9167" stroke="#08AA83" stroke-width="1.5" stroke-linecap="round" stroke-linejoin="round"></path>
  </symbol>

   <symbol fill="none" xmlns="http://www.w3.org/2000/svg" viewBox="0 0 22 22" id="cross-small">
    <path d="M17.4163 4.58333L4.58301 17.4167M4.58305 4.58333L17.4163 17.4167" stroke="#EF2447" stroke-width="2" stroke-linecap="round" stroke-linejoin="round"></path>
  </symbol>

   <symbol fill="none" xmlns="http://www.w3.org/2000/svg" viewBox="0 0 18 18" id="chevron-down">
    <path d="M4.5 6.75L9 11.25L13.5 6.75" stroke="#262626" stroke-width="2" stroke-linecap="round" stroke-linejoin="round"></path>
  </symbol>

   <symbol fill="none" xmlns="http://www.w3.org/2000/svg" viewBox="0 0 22 22" id="eye-off">
    <g clip-path="url(#clip0_55848_2014)">
      <path d="M16.4463 16.445C14.8793 17.6394 12.9713 18.3011 11.0013 18.3333C4.58464 18.3333 0.917969 11 0.917969 11C2.0582 8.87507 3.63968 7.01855 5.5563 5.555M9.0763 3.88666C9.70727 3.73897 10.3533 3.66514 11.0013 3.66666C17.418 3.66666 21.0846 11 21.0846 11C20.5282 12.041 19.8646 13.021 19.1046 13.9242M12.9446 12.9433C12.6929 13.2135 12.3893 13.4302 12.0519 13.5805C11.7146 13.7308 11.3505 13.8117 10.9812 13.8182C10.612 13.8247 10.2452 13.7568 9.90278 13.6184C9.56036 13.4801 9.2493 13.2743 8.98816 13.0131C8.72703 12.752 8.52116 12.4409 8.38285 12.0985C8.24454 11.7561 8.17662 11.3893 8.18313 11.0201C8.18965 10.6508 8.27047 10.2867 8.42077 9.94936C8.57108 9.61203 8.78778 9.30843 9.05797 9.05666" stroke="#F6B83D" stroke-width="2" stroke-linecap="round" stroke-linejoin="round"></path>
      <path d="M0.917969 0.916672L21.0846 21.0833" stroke="#F6B83D" stroke-width="2" stroke-linecap="round" stroke-linejoin="round"></path>
    </g>
    <defs>
      <clipPath id="clip0_55848_2014">
        <rect width="22" height="22" fill="white"></rect>
      </clipPath>
    </defs>
  </symbol>

   <symbol fill="none" xmlns="http://www.w3.org/2000/svg" viewBox="0 0 22 22" id="eye">
    <g clip-path="url(#clip0_55848_2020)">
      <path d="M0.916016 11C0.916016 11 4.58268 3.66667 10.9993 3.66667C17.416 3.66667 21.0827 11 21.0827 11C21.0827 11 17.416 18.3333 10.9993 18.3333C4.58268 18.3333 0.916016 11 0.916016 11Z" stroke="#F6B83D" stroke-width="2" stroke-linecap="round" stroke-linejoin="round"></path>
      <path d="M11 13.75C12.5188 13.75 13.75 12.5188 13.75 11C13.75 9.48122 12.5188 8.25 11 8.25C9.48122 8.25 8.25 9.48122 8.25 11C8.25 12.5188 9.48122 13.75 11 13.75Z" stroke="#F6B83D" stroke-width="2" stroke-linecap="round" stroke-linejoin="round"></path>
    </g>
    <defs>
      <clipPath id="clip0_55848_2020">
        <rect width="22" height="22" fill="white"></rect>
      </clipPath>
    </defs>
  </symbol>

   <symbol fill="none" xmlns="http://www.w3.org/2000/svg" viewBox="0 0 17 17" id="heard-mobile">
    <path fill-rule="evenodd" clip-rule="evenodd" d="M8.49554 4.01679C7.13598 2.41155 4.86882 1.97975 3.16539 3.44966C1.46195 4.91958 1.22213 7.3772 2.55985 9.11567C3.41666 10.2292 5.61099 12.294 7.07795 13.6347C7.56545 14.0803 7.80919 14.3031 8.10115 14.3924C8.35213 14.4692 8.63894 14.4692 8.88992 14.3924C9.18188 14.3031 9.42563 14.0803 9.91312 13.6347C11.3801 12.294 13.5744 10.2292 14.4312 9.11567C15.7689 7.3772 15.5584 4.90411 13.8257 3.44966C12.093 1.99521 9.8551 2.41155 8.49554 4.01679Z" fill="#F6B83D"></path>
  </symbol>

   <symbol fill="none" xmlns="http://www.w3.org/2000/svg" viewBox="0 0 23 23" id="heart-desktop">
    <path fill-rule="evenodd" clip-rule="evenodd" d="M11.4935 5.43447C9.6541 3.26268 6.58677 2.67848 4.28212 4.66718C1.97748 6.65589 1.65302 9.98091 3.46287 12.333C4.62209 13.8395 7.59088 16.6331 9.5756 18.447C10.2351 19.0498 10.5649 19.3512 10.9599 19.4721C11.2995 19.576 11.6875 19.576 12.0271 19.4721C12.4221 19.3512 12.7519 19.0498 13.4114 18.447C15.3961 16.6331 18.3649 13.8395 19.5241 12.333C21.334 9.98091 21.0491 6.63497 18.7049 4.66718C16.3606 2.6994 13.3329 3.26268 11.4935 5.43447Z" fill="#F6B83D"></path>
  </symbol>

   <symbol fill="none" xmlns="http://www.w3.org/2000/svg" viewBox="0 0 18 18" id="search">
    <path d="M8.25 14.25C11.5637 14.25 14.25 11.5637 14.25 8.25C14.25 4.93629 11.5637 2.25 8.25 2.25C4.93629 2.25 2.25 4.93629 2.25 8.25C2.25 11.5637 4.93629 14.25 8.25 14.25Z" stroke="#262626" stroke-width="2" stroke-linecap="round" stroke-linejoin="round"></path>
    <path d="M15.7508 15.75L12.4883 12.4875" stroke="#262626" stroke-width="2" stroke-linecap="round" stroke-linejoin="round"></path>
  </symbol>

   <symbol fill="none" xmlns="http://www.w3.org/2000/svg" viewBox="0 0 16 16" id="star">
    <g clip-path="url(#clip0_55857_2203)">
      <path d="M6.20021 4.69703L8 1.28579L9.79979 4.69703C9.95896 4.9987 10.2491 5.20947 10.5851 5.26762L14.3856 5.92519L11.6975 8.69103C11.4598 8.93563 11.3489 9.27666 11.3975 9.61427L11.9465 13.4319L8.48537 11.7301C8.17929 11.5795 7.82071 11.5795 7.51463 11.7301L4.05348 13.4319L4.6025 9.61427C4.65105 9.27666 4.54024 8.93563 4.30252 8.69103L1.6144 5.92519L5.41486 5.26762C5.75095 5.20947 6.04104 4.9987 6.20021 4.69703Z" fill="#FFC531" stroke="#FFC531" stroke-width="1.2"></path>
    </g>
    <defs>
      <clipPath id="clip0_55857_2203">
        <rect width="16" height="16" fill="none"></rect>
      </clipPath>
    </defs>
  </symbol>

   <symbol fill="none" xmlns="http://www.w3.org/2000/svg" viewBox="0 0 18 18" id="delete">
    <path d="M2.25 4.5H3.75H15.75" stroke="#F6B83D" stroke-width="1.5" stroke-linecap="round" stroke-linejoin="round"></path>
    <path d="M14.25 4.5V15C14.25 15.3978 14.092 15.7794 13.8107 16.0607C13.5294 16.342 13.1478 16.5 12.75 16.5H5.25C4.85218 16.5 4.47064 16.342 4.18934 16.0607C3.90804 15.7794 3.75 15.3978 3.75 15V4.5M6 4.5V3C6 2.60218 6.15804 2.22064 6.43934 1.93934C6.72065 1.65804 7.10218 1.5 7.5 1.5H10.5C10.8978 1.5 11.2794 1.65804 11.5607 1.93934C11.842 2.22064 12 2.60218 12 3V4.5" stroke="#F6B83D" stroke-width="1.5" stroke-linecap="round" stroke-linejoin="round"></path>
    <path d="M7.5 8.25V12.75" stroke="#F6B83D" stroke-width="1.5" stroke-linecap="round" stroke-linejoin="round"></path>
    <path d="M10.5 8.25V12.75" stroke="#F6B83D" stroke-width="1.5" stroke-linecap="round" stroke-linejoin="round"></path>
  </symbol>

   <symbol fill="none" xmlns="http://www.w3.org/2000/svg" viewBox="0 0 18 18" id="heart">
    <path d="M15.6306 3.4575C15.2475 3.07425 14.7927 2.77023 14.2921 2.56281C13.7915 2.35539 13.2549 2.24863 12.7131 2.24863C12.1712 2.24863 11.6347 2.35539 11.1341 2.56281C10.6335 2.77023 10.1786 3.07425 9.79558 3.4575L9.00058 4.2525L8.20558 3.4575C7.43181 2.68373 6.38235 2.24903 5.28808 2.24903C4.1938 2.24903 3.14435 2.68373 2.37058 3.4575C1.59681 4.23127 1.16211 5.28072 1.16211 6.375C1.16211 7.46927 1.59681 8.51873 2.37058 9.2925L3.16558 10.0875L9.00058 15.9225L14.8356 10.0875L15.6306 9.2925C16.0138 8.90943 16.3178 8.45461 16.5253 7.95401C16.7327 7.45342 16.8394 6.91686 16.8394 6.375C16.8394 5.83313 16.7327 5.29657 16.5253 4.79598C16.3178 4.29539 16.0138 3.84056 15.6306 3.4575Z" stroke="null" stroke-width="1.5" stroke-linecap="round" stroke-linejoin="round"></path>
  </symbol>

   <symbol fill="none" xmlns="http://www.w3.org/2000/svg" viewBox="0 0 24 24" id="mixed">
    <path fill-rule="evenodd" clip-rule="evenodd" d="M8.77074 7.74498C8.05311 7.46474 7.26305 7.42921 6.52317 7.6439C5.78328 7.85859 5.13495 8.31149 4.67878 8.93232C4.22261 9.55315 3.98411 10.3072 4.00031 11.0774C4.0165 11.8477 4.28647 12.591 4.76833 13.1921C5.25019 13.7932 5.91699 14.2185 6.66524 14.4019C7.41349 14.5853 8.20136 14.5166 8.90658 14.2064C9.61179 13.8963 10.1949 13.362 10.5655 12.6866C10.936 12.0111 11.0732 11.2323 10.9558 10.4709C10.9459 10.406 10.9488 10.3398 10.9644 10.276C10.98 10.2123 11.008 10.1522 11.0468 10.0993C11.0857 10.0463 11.1345 10.0016 11.1906 9.96753C11.2468 9.93349 11.309 9.91083 11.3739 9.90086C11.4388 9.89088 11.505 9.89378 11.5688 9.90939C11.6325 9.925 11.6926 9.95302 11.7455 9.99184C11.7985 10.0307 11.8432 10.0795 11.8773 10.1357C11.9113 10.1918 11.934 10.2541 11.9439 10.3189C12.0947 11.2979 11.9181 12.2992 11.4416 13.1675C10.9651 14.0358 10.2153 14.7226 9.30862 15.1213C8.40192 15.5199 7.38899 15.6081 6.42701 15.3723C5.46503 15.1364 4.6078 14.5896 3.98833 13.8168C3.36886 13.0439 3.0218 12.0882 3.00099 11.098C2.98019 10.1077 3.28681 9.1383 3.87327 8.34011C4.45974 7.54193 5.29325 6.95963 6.24448 6.68358C7.1957 6.40752 8.21144 6.45314 9.13409 6.81336C9.19607 6.8366 9.25281 6.87193 9.30102 6.91728C9.34923 6.96263 9.38796 7.01711 9.41495 7.07755C9.44194 7.13798 9.45665 7.20318 9.45824 7.26936C9.45982 7.33553 9.44825 7.40136 9.42418 7.46302C9.40012 7.52468 9.36405 7.58095 9.31806 7.62856C9.27208 7.67617 9.21709 7.71417 9.1563 7.74035C9.09551 7.76654 9.03012 7.78039 8.96393 7.7811C8.89775 7.7818 8.83208 7.76986 8.77074 7.74498Z" fill="#F6B83D"></path>
    <path fill-rule="evenodd" clip-rule="evenodd" d="M6.99805 19.5002V15.5018C6.99805 15.3693 7.0507 15.2421 7.14443 15.1484C7.23816 15.0547 7.36529 15.002 7.49784 15.002C7.6304 15.002 7.75752 15.0547 7.85125 15.1484C7.94498 15.2421 7.99764 15.3693 7.99764 15.5018V19.5002C7.99764 19.6328 7.94498 19.7599 7.85125 19.8536C7.75752 19.9473 7.6304 20 7.49784 20C7.36529 20 7.23816 19.9473 7.14443 19.8536C7.0507 19.7599 6.99805 19.6328 6.99805 19.5002Z" fill="#F6B83D"></path>
    <path fill-rule="evenodd" clip-rule="evenodd" d="M5.49902 17.0012C5.49902 16.8687 5.55168 16.7415 5.64541 16.6478C5.73914 16.5541 5.86627 16.5014 5.99882 16.5014H8.9976C9.13016 16.5014 9.25728 16.5541 9.35101 16.6478C9.44474 16.7415 9.4974 16.8687 9.4974 17.0012C9.4974 17.1338 9.44474 17.2609 9.35101 17.3546C9.25728 17.4484 9.13016 17.501 8.9976 17.501H5.99882C5.86627 17.501 5.73914 17.4484 5.64541 17.3546C5.55168 17.2609 5.49902 17.1338 5.49902 17.0012ZM14.4464 7.63653C13.8925 7.48016 13.3086 7.46285 12.7464 7.58614C12.1843 7.70942 11.6612 7.96949 11.2236 8.34329C10.786 8.71709 10.4473 9.19308 10.2377 9.72906C10.028 10.265 9.95383 10.8445 10.0217 11.416C10.0298 11.4813 10.0249 11.5477 10.0073 11.6111C9.98972 11.6746 9.95975 11.7339 9.91914 11.7858C9.87853 11.8376 9.82808 11.8809 9.77068 11.9132C9.71328 11.9455 9.65006 11.9661 9.58467 11.9739C9.51928 11.9816 9.45299 11.9764 9.38963 11.9585C9.32626 11.9405 9.26707 11.9103 9.21544 11.8694C9.16381 11.8285 9.12077 11.7778 9.08879 11.7203C9.05681 11.6627 9.03652 11.5994 9.02909 11.5339C8.91232 10.5504 9.12346 9.55573 9.62975 8.70441C10.136 7.85309 10.9092 7.19268 11.8292 6.82567C12.7491 6.45865 13.7645 6.40556 14.7178 6.67462C15.671 6.94368 16.5088 7.51985 17.1011 8.31372C17.6935 9.1076 18.0072 10.0748 17.9936 11.0652C17.9801 12.0556 17.64 13.0138 17.0262 13.7912C16.4124 14.5686 15.5592 15.1216 14.5989 15.3645C13.6387 15.6074 12.6251 15.5265 11.7155 15.1345C11.6552 15.1085 11.6006 15.0709 11.5549 15.0239C11.5091 14.9768 11.4731 14.9212 11.4488 14.8602C11.3998 14.7371 11.4017 14.5995 11.4541 14.4777C11.5065 14.356 11.6052 14.2601 11.7283 14.211C11.8515 14.162 11.9891 14.1639 12.1108 14.2164C12.5506 14.4058 13.0245 14.503 13.5033 14.5019C13.9821 14.5008 14.4556 14.4014 14.8944 14.2099C15.3332 14.0184 15.7281 13.7389 16.0546 13.3886C16.381 13.0384 16.6321 12.6248 16.7922 12.1736C16.9524 11.7224 17.0182 11.2431 16.9857 10.7654C16.9531 10.2877 16.8229 9.82181 16.603 9.39649C16.3831 8.97118 16.0782 8.59553 15.7072 8.2928C15.3363 7.99007 14.9072 7.7667 14.4464 7.63653Z" fill="#F6B83D"></path>
    <path fill-rule="evenodd" clip-rule="evenodd" d="M16.3915 8.60812C16.2978 8.51439 16.2451 8.38729 16.2451 8.25476C16.2451 8.12223 16.2978 7.99513 16.3915 7.9014L20.1399 4.15293C20.186 4.10519 20.2412 4.06711 20.3022 4.04092C20.3631 4.01473 20.4287 4.00094 20.4951 4.00036C20.5614 3.99979 20.6273 4.01243 20.6887 4.03756C20.7501 4.06269 20.8059 4.0998 20.8528 4.14673C20.8998 4.19366 20.9369 4.24946 20.962 4.31088C20.9871 4.37231 20.9998 4.43812 20.9992 4.50448C20.9986 4.57085 20.9848 4.63643 20.9586 4.69741C20.9325 4.75838 20.8944 4.81353 20.8466 4.85964L17.0982 8.60812C17.0044 8.70181 16.8773 8.75445 16.7448 8.75445C16.6123 8.75445 16.4852 8.70181 16.3915 8.60812Z" fill="#F6B83D"></path>
    <path fill-rule="evenodd" clip-rule="evenodd" d="M20.455 7.50508C20.3893 7.50423 20.3245 7.49046 20.2642 7.46456C20.2039 7.43865 20.1493 7.40112 20.1035 7.35411C20.0577 7.30709 20.0216 7.25151 19.9972 7.19055C19.9729 7.12958 19.9608 7.06442 19.9617 6.99878L19.9867 5.01259L18.0005 5.03758C17.8679 5.0393 17.7401 4.9883 17.6452 4.89579C17.5502 4.80327 17.4959 4.67683 17.4942 4.54428C17.4925 4.41172 17.5435 4.28391 17.636 4.18897C17.7285 4.09402 17.8549 4.03971 17.9875 4.03798L20.9993 4L20.9613 7.01178C20.9604 7.07741 20.9467 7.14224 20.9208 7.20255C20.8949 7.26287 20.8573 7.31749 20.8103 7.3633C20.7633 7.4091 20.7077 7.4452 20.6467 7.46953C20.5858 7.49386 20.5206 7.50594 20.455 7.50508Z" fill="#F6B83D"></path>
  </symbol>

  <symbol fill="none" xmlns="http://www.w3.org/2000/svg" viewBox="0 0 18 18" id="pen">
    <g clip-path="url(#clip0_55859_2229)">
      <path d="M12.75 2.25001C12.947 2.05303 13.1808 1.89677 13.4382 1.79017C13.6956 1.68356 13.9714 1.62869 14.25 1.62869C14.5286 1.62869 14.8044 1.68356 15.0618 1.79017C15.3192 1.89677 15.553 2.05303 15.75 2.25001C15.947 2.447 16.1032 2.68085 16.2098 2.93822C16.3164 3.19559 16.3713 3.47144 16.3713 3.75001C16.3713 4.02859 16.3164 4.30444 16.2098 4.56181C16.1032 4.81918 15.947 5.05303 15.75 5.25001L5.625 15.375L1.5 16.5L2.625 12.375L12.75 2.25001Z" stroke="#F6B83D" stroke-width="1.5" stroke-linecap="round" stroke-linejoin="round"></path>
    </g>
    <defs>
      <clipPath id="clip0_55859_2229">
        <rect width="18" height="18" fill="white"></rect>
      </clipPath>
    </defs>
  </symbol>

  <symbol fill="none" xmlns="http://www.w3.org/2000/svg" viewBox="0 0 24 24" id="user">
    <path d="M11.9999 15C8.82977 15 6.01065 16.5306 4.21585 18.906C3.82956 19.4172 3.63641 19.6728 3.64273 20.0183C3.64761 20.2852 3.81521 20.6219 4.02522 20.7867C4.29704 21 4.67372 21 5.42708 21H18.5726C19.326 21 19.7027 21 19.9745 20.7867C20.1845 20.6219 20.3521 20.2852 20.357 20.0183C20.3633 19.6728 20.1701 19.4172 19.7839 18.906C17.9891 16.5306 15.1699 15 11.9999 15Z" fill='#f6b83d' stroke="#f6b83d" stroke-width="2" stroke-linecap="round" stroke-linejoin="round"></path>
    <path d="M12 12C14.4853 12 16.5 9.98528 16.5 7.5C16.5 5.01472 14.4853 3 12 3C9.51472 3 7.5 5.01472 7.5 7.5C7.5 9.98528 9.51472 12 12 12Z" fill="#f6b83d" stroke="#f6b83d" stroke-width="2" stroke-linecap="round" stroke-linejoin="round"></path>
  </symbol>

    <symbol fill="none" xmlns="http://www.w3.org/2000/svg" viewBox="0 0 24 24" id="female">
    <path d="M12 13C14.7614 13 17 10.7614 17 8C17 5.23858 14.7614 3 12 3C9.23858 3 7 5.23858 7 8C7 10.7614 9.23858 13 12 13ZM12 13L12 21M9 18L15 18" stroke="#F43F5E" stroke-width="1.5" stroke-linecap="round" stroke-linejoin="round"></path>
  </symbol>

   <symbol fill="none" xmlns="http://www.w3.org/2000/svg" viewBox="0 0 24 24" id="male">
    <path d="M12 11C9.23858 11 7 13.2386 7 16C7 18.7614 9.23858 21 12 21C14.7614 21 17 18.7614 17 16C17 13.2386 14.7614 11 12 11ZM12 11V3M12 3L16 7M12 3L8 7" stroke="#54ADFF" stroke-width="1.5" stroke-linecap="round" stroke-linejoin="round"></path>
  </symbol>

   <symbol fill="none" xmlns="http://www.w3.org/2000/svg" viewBox="0 0 44 44" id="footprint">
    <path d="M17.1875 6.875C15.7162 6.875 14.4348 7.711 13.6208 8.85225C12.8068 9.9935 12.375 11.4675 12.375 13.0625C12.375 14.6575 12.8068 16.1329 13.6208 17.2741C14.4348 18.4154 15.7162 19.25 17.1875 19.25C18.6588 19.25 19.9402 18.414 20.7542 17.2728C21.5683 16.1315 22 14.6575 22 13.0625C22 11.4675 21.5683 9.99213 20.7542 8.85087C19.9402 7.70962 18.6588 6.875 17.1875 6.875ZM22 13.0625C22 14.6575 22.4317 16.1329 23.2458 17.2741C24.0597 18.4154 25.3426 19.25 26.8125 19.25C28.2838 19.25 29.5653 18.414 30.3792 17.2728C31.1933 16.1315 31.625 14.6575 31.625 13.0625C31.625 11.4675 31.1933 9.99213 30.3792 8.85087C29.5653 7.70962 28.2838 6.875 26.8125 6.875C25.3412 6.875 24.0597 7.711 23.2458 8.85225C22.4317 9.9935 22 11.4675 22 13.0625ZM17.1875 9.625C17.6165 9.625 18.0895 9.8395 18.5213 10.4418C18.9475 11.0426 19.25 11.9996 19.25 13.0625C19.25 14.1254 18.9475 15.0838 18.5213 15.6833C18.0895 16.2855 17.6165 16.5 17.1875 16.5C16.7585 16.5 16.2855 16.2855 15.8537 15.6833C15.4275 15.0824 15.125 14.1254 15.125 13.0625C15.125 11.9996 15.4275 11.0413 15.8537 10.4418C16.2855 9.8395 16.7585 9.625 17.1875 9.625ZM26.8125 9.625C27.2415 9.625 27.7145 9.8395 28.1462 10.4418C28.5725 11.0426 28.875 11.9996 28.875 13.0625C28.875 14.1254 28.5725 15.0838 28.1462 15.6833C27.7145 16.2855 27.2415 16.5 26.8125 16.5C26.3835 16.5 25.9105 16.2855 25.4788 15.6833C25.0525 15.0824 24.75 14.1254 24.75 13.0625C24.75 11.9996 25.0525 11.0413 25.4788 10.4418C25.9105 9.8395 26.3835 9.625 26.8125 9.625ZM10.3125 16.5C8.84125 16.5 7.55975 17.336 6.74575 18.4773C5.93175 19.6185 5.5 21.0925 5.5 22.6875C5.5 24.2825 5.93175 25.7579 6.74575 26.8991C7.55975 28.0404 8.84125 28.875 10.3125 28.875C11.7838 28.875 13.0652 28.039 13.8792 26.8978C14.6932 25.7565 15.125 24.2825 15.125 22.6875C15.125 21.0925 14.6932 19.6171 13.8792 18.4759C13.0652 17.3346 11.7838 16.5 10.3125 16.5ZM33.6875 16.5C32.2162 16.5 30.9347 17.336 30.1208 18.4773C29.3067 19.6185 28.875 21.0925 28.875 22.6875C28.875 24.2825 29.3067 25.7579 30.1208 26.8991C30.9347 28.0404 32.2162 28.875 33.6875 28.875C35.1588 28.875 36.4403 28.039 37.2542 26.8978C38.0682 25.7565 38.5 24.2825 38.5 22.6875C38.5 21.0925 38.0682 19.6171 37.2542 18.4759C36.4403 17.3346 35.1588 16.5 33.6875 16.5ZM10.3125 19.25C10.7415 19.25 11.2145 19.4645 11.6463 20.0668C12.0725 20.6676 12.375 21.6246 12.375 22.6875C12.375 23.7504 12.0725 24.7088 11.6463 25.3083C11.2145 25.9105 10.7415 26.125 10.3125 26.125C9.8835 26.125 9.4105 25.9105 8.97875 25.3083C8.5525 24.7088 8.25 23.7504 8.25 22.6875C8.25 21.6246 8.5525 20.6663 8.97875 20.0668C9.4105 19.4645 9.8835 19.25 10.3125 19.25ZM33.6875 19.25C34.1165 19.25 34.5895 19.4645 35.0212 20.0668C35.4475 20.6676 35.75 21.6246 35.75 22.6875C35.75 23.7504 35.4475 24.7088 35.0212 25.3083C34.5895 25.9105 34.1165 26.125 33.6875 26.125C33.2585 26.125 32.7855 25.9105 32.3538 25.3083C31.9275 24.7074 31.625 23.7504 31.625 22.6875C31.625 21.6246 31.9275 20.6663 32.3538 20.0668C32.7855 19.4645 33.2585 19.25 33.6875 19.25ZM22 22C20.1671 22 18.8884 23.1894 18.26 24.2344C17.6357 25.2794 17.2507 26.1484 16.885 26.5114C16.6746 26.7273 15.3478 27.2264 13.9645 27.9318C13.2729 28.2851 12.5757 28.7568 11.9886 29.4786C11.3974 30.2005 10.9986 31.1974 10.9986 32.3153C10.9986 34.9553 13.1711 37.1278 15.8111 37.1278C17.0019 37.1278 18.2449 36.7428 19.4618 36.399C20.6841 36.047 22 35.75 22 35.75C22 35.75 23.3159 36.047 24.5355 36.3963C25.7537 36.74 26.9967 37.125 28.1875 37.125C30.8275 37.125 33 34.9525 33 32.3125C33 31.2208 32.5971 30.2225 32.01 29.5213C31.4256 28.8159 30.7216 28.38 30.0355 28.0156C28.6605 27.2869 27.3089 26.7094 27.1136 26.5114C26.7836 26.1855 26.4124 25.2876 25.7799 24.2371C25.1488 23.1825 23.8425 22 22 22ZM22 24.75C22.9075 24.75 23.0079 24.97 23.4163 25.652C23.8288 26.3326 24.1368 27.489 25.135 28.4886C26.2694 29.6161 27.7021 29.8636 28.7458 30.4191C29.2682 30.6969 29.667 30.9925 29.9062 31.2785C30.1441 31.5631 30.25 31.823 30.25 32.3098C30.25 33.4648 29.3425 34.3723 28.1875 34.3723C27.7887 34.3723 26.5045 34.0698 25.3083 33.726C24.112 33.3864 23.122 32.9973 22 32.9973C20.878 32.9973 19.888 33.3864 18.6917 33.726C17.4955 34.0698 16.2113 34.3723 15.8125 34.3723C14.6575 34.3723 13.75 33.4648 13.75 32.3098C13.75 31.7556 13.8655 31.471 14.0938 31.1905C14.322 30.9114 14.7428 30.635 15.2542 30.3751C16.2773 29.8526 17.7017 29.6464 18.8636 28.4845C19.8715 27.4711 20.174 26.2776 20.5824 25.6039C20.9839 24.9301 21.0801 24.7445 21.9986 24.7445L22 24.75Z" fill="#F6B83D"></path>
  </symbol>

   <symbol fill="none" xmlns="http://www.w3.org/2000/svg" viewBox="0 0 18 18" id="upload-cloud">
    <path d="M12 12L9 9L6 12" stroke="#F6B83D" stroke-width="1.3" stroke-linecap="round" stroke-linejoin="round"></path>
    <path d="M9 9V15.75" stroke="#F6B83D" stroke-width="1.3" stroke-linecap="round" stroke-linejoin="round"></path>
    <path d="M15.2925 13.7925C16.024 13.3937 16.6018 12.7627 16.9349 11.999C17.2679 11.2353 17.3371 10.3824 17.1316 9.57502C16.9261 8.76761 16.4576 8.05164 15.8 7.54009C15.1424 7.02854 14.3331 6.75055 13.5 6.75H12.555C12.328 5.87193 11.9048 5.05675 11.3174 4.36575C10.73 3.67474 9.9936 3.12589 9.16354 2.76046C8.33348 2.39503 7.43138 2.22252 6.52505 2.25592C5.61873 2.28931 4.73177 2.52773 3.93085 2.95325C3.12993 3.37878 2.4359 3.98033 1.90094 4.71269C1.36597 5.44505 1.00399 6.28916 0.842205 7.18155C0.680423 8.07394 0.723049 8.9914 0.96688 9.86495C1.21071 10.7385 1.6494 11.5454 2.24997 12.225" stroke="#F6B83D" stroke-width="1.3" stroke-linecap="round" stroke-linejoin="round"></path>
    <path d="M12 12L9 9L6 12" stroke="#F6B83D" stroke-width="1.3" stroke-linecap="round" stroke-linejoin="round"></path>
  </symbol>
   <symbol fill="none" xmlns="http://www.w3.org/2000/svg" viewBox="0 0 32 32" id="x">
    <path d="M24 8L8 24" stroke="#262626" stroke-width="3" stroke-linecap="round" stroke-linejoin="round"></path>
    <path d="M8 8L24 24" stroke="#262626" stroke-width="3" stroke-linecap="round" stroke-linejoin="round"></path>
  </symbol>
   <symbol fill="none" xmlns="http://www.w3.org/2000/svg" viewBox="0 0 23 23" id="heard-home-desk">
    <path fill-rule="evenodd" clip-rule="evenodd" d="M11.4935 5.43447C9.6541 3.26268 6.58677 2.67848 4.28212 4.66718C1.97748 6.65589 1.65302 9.98091 3.46287 12.333C4.62209 13.8395 7.59088 16.6331 9.5756 18.447C10.2351 19.0498 10.5649 19.3512 10.9599 19.4721C11.2995 19.576 11.6875 19.576 12.0271 19.4721C12.4221 19.3512 12.7519 19.0498 13.4114 18.447C15.3961 16.6331 18.3649 13.8395 19.5241 12.333C21.334 9.98091 21.0491 6.63497 18.7049 4.66718C16.3606 2.6994 13.3329 3.26268 11.4935 5.43447Z" fill="white"></path>
  </symbol>
   <symbol fill="none" xmlns="http://www.w3.org/2000/svg" viewBox="0 0 17 17" id="heard-home">
    <path fill-rule="evenodd" clip-rule="evenodd" d="M8.49554 4.01679C7.13598 2.41155 4.86882 1.97975 3.16539 3.44966C1.46195 4.91958 1.22213 7.3772 2.55985 9.11567C3.41666 10.2292 5.61099 12.294 7.07795 13.6347C7.56545 14.0803 7.80919 14.3031 8.10115 14.3924C8.35213 14.4692 8.63894 14.4692 8.88992 14.3924C9.18188 14.3031 9.42563 14.0803 9.91312 13.6347C11.3801 12.294 13.5744 10.2292 14.4312 9.11567C15.7689 7.3772 15.5584 4.90411 13.8257 3.44966C12.093 1.99521 9.8551 2.41155 8.49554 4.01679Z" fill="white"></path>
  </symbol>
   <symbol fill="none" xmlns="http://www.w3.org/2000/svg" viewBox="0 0 32 32" id="esc-white">
    <path d="M24 8L8 24" stroke="white" stroke-width="3" stroke-linecap="round" stroke-linejoin="round"></path>
    <path d="M8 8L24 24" stroke="white" stroke-width="3" stroke-linecap="round" stroke-linejoin="round"></path>
  </symbol>
</svg>
